<svg version="1.1" viewBox="0 0 24 24" xmlns="http://www.w3.org/2000/svg"><path d="m15.712 18.727q-1.405 0-2.4454-0.64025-1.0404-0.64021-1.6184-1.7873-0.578-1.156-0.578-2.6943 0-1.5472 0.578-2.7032 0.57797-1.1649 1.6184-1.8051 1.0404-0.64025 2.4454-0.64025 1.5473 0 2.6677 0.78251 1.1293 0.77363 1.4939 2.1519l-1.8585 0.44462q-0.20447-0.77363-0.80032-1.2449-0.58688-0.48019-1.4939-0.48019-0.89809 0-1.4939 0.47131-0.58688 0.47127-0.88033 1.2716-0.2846 0.7914-0.2846 1.7517 0 0.95146 0.2846 1.7429 0.29329 0.78251 0.88033 1.2538 0.59577 0.47127 1.4939 0.47127 0.92481 0 1.5295-0.48907 0.60469-0.49795 0.80032-1.3071l1.8495 0.44462q-0.36472 1.405-1.4939 2.2053-1.1293 0.80028-2.6943 0.80028zm8.2875-13.454v13.249h-1.9563v-13.249z" fill="#4caf4f"/><path d="m0 18.522v-13.249h4.7484q1.5295 0 2.5521 0.56908 1.0226 0.56024 1.5294 1.5384 0.50687 0.96922 0.50687 2.1964 0 1.2271-0.51575 2.2052-0.50683 0.96926-1.5295 1.5383-1.0226 0.56024-2.5609 0.56024h-2.7032v4.6417zm2.0274-6.3579h2.5076q1.4583 0 2.0985-0.72915 0.64913-0.73807 0.64913-1.8585 0-1.1204-0.64913-1.8407-0.64021-0.72915-2.1163-0.72915h-2.4898z"/></svg>
